<?xml version="1.0" encoding="utf-8"?>
<!-- Generator: Adobe Illustrator 25.4.1, SVG Export Plug-In . SVG Version: 6.00 Build 0)  -->
<svg version="1.1" id="Layer_1" xmlns="http://www.w3.org/2000/svg" xmlns:xlink="http://www.w3.org/1999/xlink" x="0px" y="0px"
	 viewBox="0 0 754 754" style="enable-background:new 0 0 754 754;" xml:space="preserve">
<style type="text/css">
	.st0{clip-path:url(#SVGID_00000011749765897247906370000010587725431983267990_);}
	.st1{fill:#FF123B;}
	.st2{clip-path:url(#SVGID_00000116236558359419176290000000166181230247943336_);}
	.st3{opacity:0.1;fill-rule:evenodd;clip-rule:evenodd;enable-background:new    ;}
	.st4{clip-path:url(#SVGID_00000109014814012514112260000006633246890559829939_);}
	.st5{fill-rule:evenodd;clip-rule:evenodd;fill:#FFFFFF;}
	.st6{fill-rule:evenodd;clip-rule:evenodd;}
	.st7{clip-path:url(#SVGID_00000031903326055897856160000005448620065817069468_);}
	.st8{fill-rule:evenodd;clip-rule:evenodd;fill:#C6C7DB;}
	.st9{fill:none;}
	.st10{clip-path:url(#SVGID_00000107590891387040837860000015243374939467154051_);}
	.st11{opacity:0.2;}
	.st12{clip-path:url(#SVGID_00000013172160388990253370000006023137023597435017_);}
	.st13{opacity:0.3;fill-rule:evenodd;clip-rule:evenodd;enable-background:new    ;}
	.st14{opacity:0.5;}
	.st15{clip-path:url(#SVGID_00000078727805242502565380000002124515909019386767_);}
	.st16{opacity:0.27;fill-rule:evenodd;clip-rule:evenodd;enable-background:new    ;}
	.st17{clip-path:url(#SVGID_00000065758955076705486940000017426522059713437346_);}
</style>
<g id="Layer_2_00000070810739248359321550000015818376115916814474_">
	<g id="Layer_3_copy_2">
		<g>
			<defs>
				<rect id="SVGID_1_" width="754" height="754"/>
			</defs>
			<clipPath id="SVGID_00000176033300808727514910000017966836188819998633_">
				<use xlink:href="#SVGID_1_"  style="overflow:visible;"/>
			</clipPath>
			<g style="clip-path:url(#SVGID_00000176033300808727514910000017966836188819998633_);">
				<rect x="-132" y="-346.1" class="st1" width="2004" height="1169"/>
				<g id="sh">
					<g>
						<defs>
							<path id="SVGID_00000038388577889846538520000017264097246312802987_" d="M1041.7-137.6H354.6
								C126.9,86.6-224.6,358.8,81,685.9l0,0c334.5,329.1,707.4-170,960.7-353.3L1041.7-137.6z"/>
						</defs>
						<clipPath id="SVGID_00000109728733583693227980000017968208711934175402_">
							<use xlink:href="#SVGID_00000038388577889846538520000017264097246312802987_"  style="overflow:visible;"/>
						</clipPath>
						<g style="clip-path:url(#SVGID_00000109728733583693227980000017968208711934175402_);">
							<path class="st3" d="M373.5,532.5c182.4,0,330.5,24.3,330.5,54.3c14.4,69.6-675.4,69.6-661,0C43,556.8,191,532.5,373.5,532.5
								z"/>
						</g>
					</g>
				</g>
				<g id="bg">
					<g>
						<defs>
							<path id="SVGID_00000029763870477202845890000003176944090579998109_" d="M1041.7-137.6H354.6
								C126.9,86.6-224.6,358.8,81,685.9l0,0c334.5,329.1,707.4-170,960.7-353.3L1041.7-137.6z"/>
						</defs>
						<clipPath id="SVGID_00000121254128872369492570000000492242925224758676_">
							<use xlink:href="#SVGID_00000029763870477202845890000003176944090579998109_"  style="overflow:visible;"/>
						</clipPath>
						<g style="clip-path:url(#SVGID_00000121254128872369492570000000492242925224758676_);">
							<path class="st5" d="M568.7,155.4c-51.7-53.3-330.9-53.4-381.8,1.4c-34.2,30.3-15.2,71.1-18.1,144.7
								c-2.6,65.2-5.3,126.7-11.4,138.6c-38,54.7-44-1.5-87.7,16.4c-40.6,20-6.8,127.3,45.2,131.5c55.7,4.5,165.5-32.8,165.5-32.8
								c37.4,14.5,173.6,11.1,209.8-1.9c0,0,116.5,45.6,153.1,38.4s82.4-118,45.3-133.1c-54.6-16.1-21.1,35.8-86.3-9.1
								c-10.7-8.1-14.7-84.6-16.6-145.8C583.8,242.2,604,186.1,568.7,155.4z"/>
						</g>
					</g>
				</g>
				<path class="st6" d="M299.1,219.3c18.6-0.1,18.6,51.3,0,51.2C280.5,270.6,280.5,219.2,299.1,219.3z"/>
				<path class="st6" d="M454.5,219.3c18.6-0.1,18.6,51.3,0,51.2C435.9,270.6,435.9,219.2,454.5,219.3z"/>
				<path class="st6" d="M231.2,274.2c0.7,0.2,1.5,1.4,1.5,1.7c23.3,51.8,263,64.3,282.1,5.4l0,0c0.2-3.3,5.7-2.5,5,0.7
					c-8.3,25.8-40.3,33.2-64.1,38.2c-58.6,8.5-184.6,9.9-225.1-37.6C228.5,280.3,225.6,273.2,231.2,274.2z"/>
				<g>
					<defs>
						<path id="SVGID_00000094577040000664912580000007921981048033737607_" d="M568.7,155.4c-51.7-53.3-330.9-53.4-381.8,1.4
							c-34.2,30.3-15.2,71.1-18.1,144.7c-2.6,65.2-5.3,126.7-11.4,138.6c-38,54.7-44-1.5-87.7,16.4c-40.6,20-6.8,127.3,45.2,131.5
							c55.7,4.5,165.5-32.8,165.5-32.8c37.4,14.5,173.6,11.1,209.8-1.9c0,0,116.5,45.6,153.1,38.4s82.4-118,45.3-133.1
							c-54.6-16.1-21.1,35.8-86.3-9.1c-10.7-8.1-14.7-84.6-16.6-145.8C583.8,242.2,604,186.1,568.7,155.4z"/>
					</defs>
					<clipPath id="SVGID_00000089568372316982563060000014141586549237346476_">
						<use xlink:href="#SVGID_00000094577040000664912580000007921981048033737607_"  style="overflow:visible;"/>
					</clipPath>
					<g style="clip-path:url(#SVGID_00000089568372316982563060000014141586549237346476_);">
						<path class="st8" d="M69.5,479.5c39.1-17.2,85.3,90.2,46,106.8C76.4,603.5,30.2,496.1,69.5,479.5z"/>
					</g>
				</g>
				<path class="st5" d="M294.7,227.7c8-0.1,8,12.5,0,12.4C286.6,240.2,286.7,227.7,294.7,227.7z"/>
				<path class="st5" d="M450.2,227.7c8-0.1,8,12.5,0,12.4C442.1,240.2,442.1,227.6,450.2,227.7z"/>
				<path class="st9" d="M1041.7-137.6H354.6C126.9,86.6-224.6,358.8,81,685.9l0,0c334.5,329.1,707.4-170,960.7-353.3L1041.7-137.6z
					"/>
				<path class="st5" d="M309.2,417.9c-4.9,15.7-20.1,127-9.1,147.4c6.1,7.7,26.8,14.7,12.5,27.4c-11.6,10.3-31.3-6.8-43.1-8
					c-8.5-0.8-28.8,13.6-47.9,15.7c-22.2,2.4-39.4,1.3-45.5-11.7c-8.5-18.2,16.2-32.3,28.7-43.5c3.8-3.4-8.4-26.9-21.8-74.8
					c-11.4-40.8-6.7-96.3-6.7-96.3"/>
				<path class="st9" d="M38.2,155.8C-73.4,293-71.5,537.4,81,685.9l0,0c334.5,329.1,707.4-170,960.7-353.3l0-470.2l-725.5,13.7"/>
				<path class="st5" d="M457.9,419.1c7.1,31.6,8.4,114.9-13.5,149.5c-6.1,7.7-26.3,11.2-15.9,23.1c10.9,12.5,34.8-2.6,46.6-3.7
					c8.5-0.8,28.8,13.8,47.9,15.7c22.8,2.3,39.4,1.3,45.5-11.7c8.5-18.2-16.2-32.3-28.7-43.5c35.6-55.9,49.6-103.7,43.2-171.5"/>
				<g>
					<defs>
						<path id="SVGID_00000095314810339442262760000005645511398776440720_" d="M568.7,155.4c-51.7-53.3-330.9-53.4-381.8,1.4
							c-34.2,30.3-15.2,71.1-18.1,144.7c-2.6,65.2-5.3,126.7-11.4,138.6c-38,54.7-44-1.5-87.7,16.4c-40.6,20-6.8,127.3,45.2,131.5
							c55.7,4.5,165.5-32.8,165.5-32.8c37.4,14.5,173.6,11.1,209.8-1.9c0,0,116.5,45.6,153.1,38.4s82.4-118,45.3-133.1
							c-54.6-16.1-21.1,35.8-86.3-9.1c-10.7-8.1-14.7-84.6-16.6-145.8C583.8,242.2,604,186.1,568.7,155.4z"/>
					</defs>
					<clipPath id="SVGID_00000008866175047099195930000006695926420782148788_">
						<use xlink:href="#SVGID_00000095314810339442262760000005645511398776440720_"  style="overflow:visible;"/>
					</clipPath>
					<g style="clip-path:url(#SVGID_00000008866175047099195930000006695926420782148788_);">
						<path class="st8" d="M684.4,477.1c39.1,17.3-13.9,133.6-52.5,115.7C592.9,575.6,645.7,459,684.4,477.1z"/>
					</g>
				</g>
				<g class="st11">
					<g>
						<defs>
							<path id="SVGID_00000022551320395685500460000004953986159002104759_" d="M568.7,155.4c-51.7-53.3-330.9-53.4-381.8,1.4
								c-34.2,30.3-15.2,71.1-18.1,144.7c-2.6,65.2-5.3,126.7-11.4,138.6c-38,54.7-44-1.5-87.7,16.4c-40.6,20-6.8,127.3,45.2,131.5
								c55.7,4.5,165.5-32.8,165.5-32.8c37.4,14.5,173.6,11.1,209.8-1.9c0,0,116.5,45.6,153.1,38.4s82.4-118,45.3-133.1
								c-54.6-16.1-21.1,35.8-86.3-9.1c-10.7-8.1-14.7-84.6-16.6-145.8C583.8,242.2,604,186.1,568.7,155.4z"/>
						</defs>
						<clipPath id="SVGID_00000099634617871329866080000007613288278105686170_">
							<use xlink:href="#SVGID_00000022551320395685500460000004953986159002104759_"  style="overflow:visible;"/>
						</clipPath>
						<g style="clip-path:url(#SVGID_00000099634617871329866080000007613288278105686170_);">
							<path class="st13" d="M699.1,541.4c-29.1,31.9-94.1,14.3-116.1-22.8c-22.1-28.2,7.8-71.5-12-85.6s-65.2-19.1-96.7-4
								s-10.7,91.6-94,90.7c-101.5-1-49.5-94.3-81.8-95.8c-219-11-22,138.9-195.3,138.8c-39.2-2.6-57.6-50-57.6-50
								s11,83.4,54.8,89.3s524.5,16.9,553.8,10.6S699.1,541.4,699.1,541.4z"/>
						</g>
					</g>
				</g>
				<path class="st5" d="M309.2,417.9c-4.9,15.7-20.1,127-9.1,147.4c6.1,7.7,26.8,14.7,12.5,27.4c-11.6,10.3-31.3-6.8-43.1-8
					c-8.5-0.8-28.8,13.6-47.9,15.7c-22.2,2.4-39.4,1.3-45.5-11.7c-8.5-18.2,16.2-32.3,28.7-43.5c3.8-3.4-8.4-26.9-21.8-74.8
					c-11.4-40.8-6.7-96.3-6.7-96.3"/>
				<path class="st5" d="M457.9,419.1c7.1,31.6,8.4,114.9-13.5,149.5c-6.1,7.7-26.3,11.2-15.9,23.1c10.9,12.5,34.8-2.6,46.6-3.7
					c8.5-0.8,28.8,13.8,47.9,15.7c22.8,2.3,39.4,1.3,45.5-11.7c8.5-18.2-16.2-32.3-28.7-43.5c35.6-55.9,49.6-103.7,43.2-171.5"/>
				<g class="st14">
					<g>
						<defs>
							<path id="SVGID_00000119823566917682860840000011974189886524698505_" d="M309.2,417.9c-4.9,15.7-20.1,127-9.1,147.4
								c6.1,7.7,26.8,14.7,12.5,27.4c-11.6,10.3-31.3-6.8-43.1-8c-8.5-0.8-28.8,13.6-47.9,15.7c-22.2,2.4-39.4,1.3-45.5-11.7
								c-8.5-18.2,16.2-32.3,28.7-43.5c3.8-3.4-8.4-26.9-21.8-74.8c-11.4-40.8-6.7-96.3-6.7-96.3"/>
						</defs>
						<clipPath id="SVGID_00000072260485758546085790000000551464592311829673_">
							<use xlink:href="#SVGID_00000119823566917682860840000011974189886524698505_"  style="overflow:visible;"/>
						</clipPath>
						<g style="clip-path:url(#SVGID_00000072260485758546085790000000551464592311829673_);">
							<path class="st16" d="M307.3,427.6c-32.7-7.5-24.6,120.9-5.8,138.3c22,10.3,29,24.7-13.3,12.3c-40.9-20.8-82.7,27-130.6-7.2
								l-7.1,63l175.8-1.6C326.2,632.5,318.3,428.2,307.3,427.6z"/>
						</g>
					</g>
				</g>
				<g class="st14">
					<g>
						<defs>
							<path id="SVGID_00000091719445345444869790000017531190936830828209_" d="M457.9,419.1c7.1,31.6,8.4,114.9-13.5,149.5
								c-6.1,7.7-26.3,11.2-15.9,23.1c10.9,12.5,34.8-2.6,46.6-3.7c8.5-0.8,28.8,13.8,47.9,15.7c22.8,2.3,39.4,1.3,45.5-11.7
								c8.5-18.2-16.2-32.3-28.7-43.5c35.6-55.9,49.6-103.7,43.2-171.5"/>
						</defs>
						<clipPath id="SVGID_00000031890757442995690060000012877829599201374631_">
							<use xlink:href="#SVGID_00000091719445345444869790000017531190936830828209_"  style="overflow:visible;"/>
						</clipPath>
						<g style="clip-path:url(#SVGID_00000031890757442995690060000012877829599201374631_);">
							<path class="st16" d="M596.2,372.9c0,0-22.2,62.8-32.4,95.5c-9.3,29.6-40.5,68.6-31.2,75.2c22.4,15.8,56.8,33.4,18.7,42.8
								c-34.9,8.6-47.1-12.2-75.6-7.6c-26.5,4.3-38.2,15.8-58.2,6c-8-3.9-4.5,39.1-4.5,39.1l188.2-3.3L596.2,372.9z"/>
						</g>
					</g>
				</g>
			</g>
		</g>
	</g>
</g>
</svg>
